<?xml version="1.0" encoding="UTF-8" standalone="no"?>
<!-- Created with Inkscape (http://www.inkscape.org/) -->

<svg
   xmlns:dc="http://purl.org/dc/elements/1.1/"
   xmlns:cc="http://creativecommons.org/ns#"
   xmlns:rdf="http://www.w3.org/1999/02/22-rdf-syntax-ns#"
   xmlns:svg="http://www.w3.org/2000/svg"
   xmlns="http://www.w3.org/2000/svg"
   xmlns:sodipodi="http://sodipodi.sourceforge.net/DTD/sodipodi-0.dtd"
   xmlns:inkscape="http://www.inkscape.org/namespaces/inkscape"
   width="32px"
   height="32px"
   id="svg3026"
   version="1.1"
   inkscape:version="0.48.4 r9939"
   sodipodi:docname="link.svg">
  <defs
     id="defs3028" />
  <sodipodi:namedview
     id="base"
     pagecolor="#ffffff"
     bordercolor="#666666"
     borderopacity="1.0"
     inkscape:pageopacity="0.0"
     inkscape:pageshadow="2"
     inkscape:zoom="22.25"
     inkscape:cx="7.7078652"
     inkscape:cy="16"
     inkscape:current-layer="layer1"
     showgrid="true"
     inkscape:grid-bbox="true"
     inkscape:document-units="px"
     inkscape:window-width="1440"
     inkscape:window-height="876"
     inkscape:window-x="0"
     inkscape:window-y="24"
     inkscape:window-maximized="1" />
  <metadata
     id="metadata3031">
    <rdf:RDF>
      <cc:Work
         rdf:about="">
        <dc:format>image/svg+xml</dc:format>
        <dc:type
           rdf:resource="http://purl.org/dc/dcmitype/StillImage" />
        <dc:title></dc:title>
      </cc:Work>
    </rdf:RDF>
  </metadata>
  <g
     id="layer1"
     inkscape:label="Layer 1"
     inkscape:groupmode="layer">
    <path
       inkscape:connector-curvature="0"
       d="m 30.654085,2.3078499 c -0.0072,-0.0339 -0.0141,-0.0669 -0.0222,-0.1002 -0.0105,-0.0351 -0.0225,-0.0693 -0.0351,-0.1038 -0.0069,-0.0186 -0.0111,-0.0375 -0.0192,-0.0561 -0.0048,-0.0096 -0.009,-0.018 -0.0147,-0.0276 -0.0144,-0.0357 -0.0321,-0.0681 -0.051,-0.1008 -0.015,-0.0267 -0.0285,-0.0537 -0.0456,-0.0795 -0.0186,-0.03 -0.0417,-0.0585 -0.0627,-0.0876 -0.0195,-0.0246 -0.0372,-0.0486 -0.057,-0.0726 -0.0243,-0.0276 -0.0516,-0.0534 -0.0774,-0.0786 -0.021,-0.0204 -0.0417,-0.0417 -0.0636,-0.0606 -0.0279,-0.0249 -0.0588,-0.0474 -0.09,-0.0696 -0.024,-0.0174 -0.0456,-0.0342 -0.0708,-0.0489 -0.0312,-0.0207 -0.0657,-0.0384 -0.0987,-0.0558 -0.0273,-0.0138 -0.0525,-0.0279 -0.0786,-0.0396 -0.0132,-0.0057 -0.0243,-0.0129 -0.0363,-0.0183 -0.0222,-0.009 -0.0462,-0.0138 -0.0702,-0.0216 -0.0285,-0.0099 -0.057,-0.0195 -0.0864,-0.0276 -0.0369,-0.0102 -0.0738,-0.0177 -0.1107,-0.0249 -0.0288,-0.0057 -0.0564,-0.0108 -0.0867,-0.0138 -0.0393,-0.0054 -0.0789,-0.0066 -0.1179,-0.0084 -0.0192,-6e-4 -0.036,-0.0036 -0.0558,-0.0036 l -9.0894,0.0558 c -0.7605,0.0051 -1.3698,0.6234 -1.3662,1.3815 0.0057,0.7575 0.6252,1.3689 1.3812,1.3638 l 5.7774,-0.0363 -8.937,9.0486001 c -0.3336,0.3378 -0.4578,0.8034 -0.3699,1.2354 0.0522,0.2589 0.1788,0.5073 0.3816,0.7071 0.2691,0.2664 0.6219,0.3975 0.9735,0.396 0.351,-0.0021 0.7011,-0.1377 0.9681,-0.4083 l 6e-4,-3e-4 8.9361,-9.0474001 0.0363,5.7765001 c 0.0042,0.7569 0.621,1.3692 1.3806,1.3635 0.3804,-0.0015 0.7224,-0.1578 0.9699,-0.4071 0.245101,-0.2502 0.397501,-0.594 0.395101,-0.9726 l -0.0558,-9.0924001 c 0,-0.0189 -0.0048,-0.0372 -0.0048,-0.0567 -0.0027,-0.0369 -0.0045,-0.075 -0.0096,-0.1125 -0.0033,-0.0327 -0.0105,-0.0633 -0.0171,-0.0951 z"
       id="path8"
       style="fill:#fe2e64;fill-opacity:1" />
    <path
       inkscape:connector-curvature="0"
       d="m 3.0456859,25.85635 c 0,1.7151 1.3905,3.1062 3.1062,3.1062 l 16.6847991,0.0195 c 1.7157,0 3.1062,-1.3908 3.1062,-3.1062 l -0.0273,-12.2346 h 1.8405 v 12.2547 c 0,2.7042 -2.1921,4.8957 -4.8957,4.8957 L 5.9523859,30.77185 c -2.5791,0 -4.6692,-2.0907 -4.6692,-4.6686 l -0.0246,-16.8843001 c 0,-2.7042 2.1918,-4.896 4.896,-4.896 l 12.3413991,-0.0252 v 1.8426 l -12.3188991,-0.0072 c -1.7154,0 -3.1062,1.3905 -3.1062,3.1062 l -0.0252,16.6170001 z"
       id="path10"
       style="fill:#fe2e64;fill-opacity:1" />
  </g>
</svg>
